# Blender v2.79 (sub 0) OBJ File: 'map.blend'
# www.blender.org
o lava
v 0.000000 -0.527865 0.000000
v -61.519981 -0.527865 0.000000
v 0.000000 -0.527865 61.519981
v 61.519981 -0.527865 0.000000
v 0.000000 -0.527865 -61.519981
v -46.139984 -0.527865 46.139984
v 46.139984 -0.527865 46.139984
v -46.139984 -0.527865 -46.139984
v 46.139984 -0.527865 -46.139984
vt 0.500000 0.500000
vt -7.164243 -2.054748
vt -3.332122 -7.164243
vt 3.054748 -7.164243
vt 8.164244 -3.332122
vt 8.164244 3.054748
vt 4.332122 8.164244
vt -2.054748 8.164244
vt -7.164243 4.332122
vn 0.0000 1.0000 -0.0000
s off
f 1/1/1 2/2/1 6/3/1 3/4/1
f 1/1/1 3/4/1 7/5/1 4/6/1
f 1/1/1 4/6/1 9/7/1 5/8/1
f 1/1/1 5/8/1 8/9/1 2/2/1
